<?xml version="1.0" encoding="iso-8859-1"?>
<!-- Generator: Adobe Illustrator 19.0.0, SVG Export Plug-In . SVG Version: 6.00 Build 0)  -->
<svg version="1.1" id="Capa_1" xmlns="http://www.w3.org/2000/svg" xmlns:xlink="http://www.w3.org/1999/xlink" x="0px" y="0px"
	 viewBox="0 0 512 512" style="enable-background:new 0 0 512 512;" xml:space="preserve">
<rect x="144" y="400" style="fill:#CFD8DC;" width="224" height="32"/>
<g>
	<circle style="fill:#B0BEC5;" cx="112" cy="416" r="48"/>
	<circle style="fill:#B0BEC5;" cx="400" cy="416" r="48"/>
</g>
<path style="fill:#FFC107;" d="M112,48C50.24,48,0,98.24,0,160c0,57.472,89.856,159.264,100.096,170.688
	c3.04,3.36,7.36,5.312,11.904,5.312s8.864-1.952,11.904-5.312C134.144,319.264,224,217.472,224,160C224,98.24,173.76,48,112,48z"/>
<circle style="fill:#FAFAFA;" cx="112" cy="160" r="48"/>
<path style="fill:#FFD54F;" d="M400,48c-61.76,0-112,50.24-112,112c0,57.472,89.856,159.264,100.096,170.688
	c3.04,3.36,7.36,5.312,11.904,5.312s8.864-1.952,11.904-5.312C422.144,319.264,512,217.472,512,160C512,98.24,461.76,48,400,48z"/>
<circle style="fill:#FAFAFA;" cx="400" cy="160" r="48"/>
<g>
</g>
<g>
</g>
<g>
</g>
<g>
</g>
<g>
</g>
<g>
</g>
<g>
</g>
<g>
</g>
<g>
</g>
<g>
</g>
<g>
</g>
<g>
</g>
<g>
</g>
<g>
</g>
<g>
</g>
</svg>
